<svg width="26" height="28" viewBox="0 0 26 28" fill="none" xmlns="http://www.w3.org/2000/svg">
<path d="M0.200012 23.0001C0.200012 22.1165 0.916357 21.4001 1.80001 21.4001H5.00001C5.88367 21.4001 6.60001 22.1165 6.60001 23.0001V26.2001C6.60001 27.0838 5.88367 27.8001 5.00001 27.8001H1.80001C0.916357 27.8001 0.200012 27.0838 0.200012 26.2001V23.0001Z" fill="url(#paint0_linear_5928_1294)"/>
<path d="M19.4 13.4C19.4 12.5164 20.1164 11.8 21 11.8H24.2C25.0837 11.8 25.8 12.5164 25.8 13.4V26.2C25.8 27.0837 25.0837 27.8 24.2 27.8H21C20.1164 27.8 19.4 27.0837 19.4 26.2V13.4Z" fill="url(#paint1_linear_5928_1294)"/>
<path d="M9.80002 18.2001C9.80002 17.3164 10.5164 16.6001 11.4 16.6001H14.6C15.4837 16.6001 16.2 17.3164 16.2 18.2001V26.2001C16.2 27.0838 15.4837 27.8001 14.6 27.8001H11.4C10.5164 27.8001 9.80002 27.0838 9.80002 26.2001V18.2001Z" fill="url(#paint2_linear_5928_1294)"/>
<path fill-rule="evenodd" clip-rule="evenodd" d="M22.6274 0.600061H23.4C24.2837 0.600061 25 1.31641 25 2.20006V8.60006C25 9.48372 24.2837 10.2001 23.4 10.2001C22.5164 10.2001 21.8 9.48372 21.8 8.60006V6.46316L18.3529 11.9211C18.0598 12.3853 17.5491 12.6667 17.0001 12.6667H8.9134L3.09926 19.1362C2.50859 19.7935 1.49697 19.8474 0.839729 19.2568C0.182489 18.6661 0.128517 17.6545 0.71918 16.9972L7.01009 9.99724C7.31354 9.65958 7.74615 9.46673 8.20013 9.46673H16.1183L19.6972 3.80006H17C16.1164 3.80006 15.4 3.08372 15.4 2.20006C15.4 1.31641 16.1164 0.600061 17 0.600061H22.5758C22.593 0.599785 22.6102 0.599784 22.6274 0.600061Z" fill="url(#paint3_linear_5928_1294)"/>
<defs>
<linearGradient id="paint0_linear_5928_1294" x1="0.222368" y1="21.3144" x2="6.46131" y2="27.9748" gradientUnits="userSpaceOnUse">
<stop offset="0.219337" stop-color="#92D5F1"/>
<stop offset="0.790678" stop-color="#5D6EFE"/>
</linearGradient>
<linearGradient id="paint1_linear_5928_1294" x1="19.4224" y1="11.5858" x2="30.7129" y2="16.4071" gradientUnits="userSpaceOnUse">
<stop offset="0.219337" stop-color="#92D5F1"/>
<stop offset="0.790678" stop-color="#5D6EFE"/>
</linearGradient>
<linearGradient id="paint2_linear_5928_1294" x1="9.82237" y1="16.4501" x2="19.5512" y2="22.385" gradientUnits="userSpaceOnUse">
<stop offset="0.219337" stop-color="#92D5F1"/>
<stop offset="0.790678" stop-color="#5D6EFE"/>
</linearGradient>
<linearGradient id="paint3_linear_5928_1294" x1="12.6546" y1="0.599854" x2="12.6546" y2="19.6667" gradientUnits="userSpaceOnUse">
<stop stop-color="#CCEF82"/>
<stop offset="0.942708" stop-color="#469A29"/>
<stop offset="1" stop-color="#7CBC55"/>
</linearGradient>
</defs>
</svg>
