<svg width="20" height="30" viewBox="0 0 20 30" fill="none" xmlns="http://www.w3.org/2000/svg">
<path fill-rule="evenodd" clip-rule="evenodd" d="M14.2357 16.6102C14.8197 16.5266 15.3559 16.9697 15.4334 17.5999L16.724 28.0976C16.7779 28.5358 16.5945 28.9685 16.2522 29.2111C15.9099 29.4538 15.469 29.4635 15.1178 29.2361L10.3333 26.1382L5.5488 29.2361C5.19758 29.4635 4.75671 29.4538 4.41437 29.2111C4.07203 28.9684 3.8887 28.5356 3.94263 28.0975L5.23329 17.6113C5.31086 16.9811 5.84714 16.5381 6.43111 16.6218C7.01508 16.7055 7.42561 17.2842 7.34804 17.9144C7.68584 17.6956 12.9808 17.684 13.3186 17.9027C13.2411 17.2725 13.6517 16.6938 14.2357 16.6102Z" fill="url(#paint0_linear_5928_875)"/>
<path fill-rule="evenodd" clip-rule="evenodd" d="M0.733307 10.2001C0.733307 4.89816 5.03137 0.600098 10.3333 0.600098C15.6352 0.600098 19.9333 4.89816 19.9333 10.2001C19.9333 15.502 15.6352 19.8001 10.3333 19.8001C5.03137 19.8001 0.733307 15.502 0.733307 10.2001Z" fill="url(#paint1_radial_5928_875)"/>
<path fill-rule="evenodd" clip-rule="evenodd" d="M16.7333 10.2001C16.7333 13.7347 13.8679 16.6001 10.3333 16.6001C6.79869 16.6001 3.93331 13.7347 3.93331 10.2001C3.93331 6.66547 6.79869 3.8001 10.3333 3.8001C13.8679 3.8001 16.7333 6.66547 16.7333 10.2001Z" fill="url(#paint2_radial_5928_875)"/>
<defs>
<linearGradient id="paint0_linear_5928_875" x1="10.3333" y1="16.6001" x2="10.3333" y2="29.4001" gradientUnits="userSpaceOnUse">
<stop stop-color="#FF3A5E"/>
<stop offset="1" stop-color="#FF9254"/>
</linearGradient>
<radialGradient id="paint1_radial_5928_875" cx="0" cy="0" r="1" gradientUnits="userSpaceOnUse" gradientTransform="translate(13.5333 4.6001) rotate(119.055) scale(16.473 11.6758)">
<stop offset="5.23586e-05" stop-color="#FFEF77"/>
<stop offset="0.493793" stop-color="#FFC32D"/>
<stop offset="1" stop-color="#FFA800"/>
</radialGradient>
<radialGradient id="paint2_radial_5928_875" cx="0" cy="0" r="1" gradientUnits="userSpaceOnUse" gradientTransform="translate(8.19997 13.9334) rotate(-60.9454) scale(10.982 7.78385)">
<stop offset="5.23586e-05" stop-color="#FFEF77"/>
<stop offset="0.493793" stop-color="#FFC32D"/>
<stop offset="1" stop-color="#FFA800"/>
</radialGradient>
</defs>
</svg>
