<svg width="32" height="32" viewBox="0 0 32 32" fill="none" xmlns="http://www.w3.org/2000/svg">
<path fill-rule="evenodd" clip-rule="evenodd" d="M16 1.6001C15.0452 1.6001 14.1295 1.97938 13.4544 2.65451C12.7793 3.32964 12.4 4.24532 12.4 5.2001V5.4011C12.399 5.55259 12.354 5.70054 12.2703 5.82688C12.214 5.91198 12.1417 5.98477 12.0581 6.04156C11.9763 6.05869 11.8963 6.08435 11.8195 6.11826C11.6769 6.18119 11.5187 6.19996 11.3654 6.17215C11.2137 6.14465 11.0736 6.07283 10.9627 5.96581L10.897 5.90004C10.5626 5.56533 10.1656 5.29979 9.72856 5.11863C9.29153 4.93746 8.82307 4.84421 8.34998 4.84421C7.87688 4.84421 7.40842 4.93746 6.97139 5.11863C6.53456 5.29971 6.13769 5.56508 5.80345 5.89957C5.46895 6.23381 5.20359 6.63068 5.0225 7.06751C4.84134 7.50454 4.74809 7.973 4.74809 8.4461C4.74809 8.91919 4.84134 9.38765 5.0225 9.82468C5.20367 10.2617 5.4692 10.6588 5.80392 10.9931L5.86969 11.0589C5.97671 11.1697 6.04853 11.3098 6.07603 11.4615C6.10384 11.6148 6.08507 11.773 6.02214 11.9156C6.01193 11.9387 6.00246 11.9622 5.99373 11.9859C5.93971 12.1328 5.84274 12.26 5.71544 12.3511C5.59107 12.44 5.44338 12.4904 5.29074 12.4961H5.19998C4.2452 12.4961 3.32952 12.8754 2.65439 13.5505C1.97926 14.2256 1.59998 15.1413 1.59998 16.0961C1.59998 17.0509 1.97926 17.9665 2.65439 18.6417C3.32952 19.3168 4.2452 19.6961 5.19998 19.6961H5.40097C5.55247 19.697 5.70042 19.7421 5.82675 19.8258C5.95358 19.9098 6.05302 20.029 6.11294 20.1688L6.11814 20.1806C6.18107 20.3232 6.19984 20.4814 6.17203 20.6347C6.14453 20.7864 6.07272 20.9265 5.96571 21.0373L5.89992 21.1031C5.5652 21.4374 5.29967 21.8345 5.1185 22.2715C4.93734 22.7085 4.84409 23.177 4.84409 23.6501C4.84409 24.1232 4.93734 24.5916 5.1185 25.0287C5.29967 25.4657 5.5652 25.8628 5.89992 26.1971C6.23407 26.5314 6.63077 26.7966 7.06739 26.9776C7.50442 27.1587 7.97288 27.252 8.44598 27.252C8.91907 27.252 9.38753 27.1587 9.82456 26.9776C10.2614 26.7965 10.6587 26.5307 10.993 26.1962L11.0587 26.1304C11.1696 26.0234 11.3097 25.9515 11.4614 25.924C11.6147 25.8962 11.7729 25.915 11.9155 25.9779C11.9386 25.9881 11.962 25.9976 11.9858 26.0063C12.1327 26.0604 12.2599 26.1573 12.3509 26.2846C12.4399 26.409 12.4903 26.5567 12.496 26.7093V26.8001C12.496 27.7549 12.8753 28.6706 13.5504 29.3457C14.2255 30.0208 15.1412 30.4001 16.096 30.4001C17.0508 30.4001 17.9664 30.0208 18.6416 29.3457C19.3167 28.6706 19.696 27.7549 19.696 26.8001V26.5991C19.6969 26.4476 19.742 26.2997 19.8256 26.1733C19.9096 26.0465 20.0289 25.9471 20.1687 25.8871L20.1805 25.8819C20.3231 25.819 20.4812 25.8002 20.6346 25.828C20.7863 25.8555 20.9263 25.9273 21.0372 26.0343L21.1034 26.1006C21.4377 26.4351 21.8346 26.7005 22.2714 26.8816C22.7084 27.0627 23.1769 27.156 23.65 27.156C24.1231 27.156 24.5915 27.0627 25.0286 26.8816C25.4654 26.7005 25.8623 26.4351 26.1965 26.1006C26.1963 26.1008 26.1962 26.1009 26.196 26.1011L25.348 25.2521L26.197 26.1002C26.1968 26.1003 26.1967 26.1005 26.1965 26.1006C26.531 25.7664 26.7964 25.3695 26.9774 24.9327C27.1586 24.4956 27.2519 24.0272 27.2519 23.5541C27.2519 23.081 27.1586 22.6125 26.9774 22.1755C26.7964 21.7387 26.5305 21.3413 26.196 21.0071L26.1302 20.9413C26.0232 20.8304 25.9514 20.6904 25.9239 20.5387C25.8961 20.3854 25.9149 20.2272 25.9779 20.0846L25.9829 20.0728C26.0429 19.933 26.1424 19.8138 26.2692 19.7298C26.3955 19.6461 26.5435 19.601 26.695 19.6001H26.8C27.7548 19.6001 28.6704 19.2208 29.3456 18.5457C30.0207 17.8706 30.4 16.9549 30.4 16.0001C30.4 15.0453 30.0207 14.1296 29.3456 13.4545C28.6704 12.7794 27.7548 12.4001 26.8 12.4001H26.599C26.4475 12.3991 26.2995 12.3541 26.1732 12.2704C26.0881 12.2141 26.0153 12.1418 25.9585 12.0582C25.9414 11.9764 25.9157 11.8964 25.8818 11.8196C25.8189 11.677 25.8001 11.5188 25.8279 11.3655C25.8554 11.2138 25.9272 11.0737 26.0343 10.9629L26.1005 10.8966C26.435 10.5624 26.7004 10.1655 26.8814 9.72868C27.0626 9.29165 27.1559 8.82319 27.1559 8.3501C27.1559 7.877 27.0626 7.40854 26.8814 6.97151C26.7004 6.53489 26.4352 6.13819 26.101 5.80404C25.7666 5.46933 25.3696 5.20379 24.9326 5.02263C24.4955 4.84146 24.0271 4.74821 23.554 4.74821C23.0809 4.74821 22.6124 4.84146 22.1754 5.02263C21.7384 5.20379 21.3413 5.46932 21.007 5.80404L20.9412 5.86983C20.8303 5.97684 20.6903 6.04865 20.5386 6.07616C20.3852 6.10396 20.2271 6.08513 20.0845 6.0222L20.0727 6.01713C19.9329 5.95721 19.8136 5.85771 19.7296 5.73088C19.646 5.60455 19.6009 5.45659 19.6 5.3051V5.2001C19.6 4.24532 19.2207 3.32964 18.5456 2.65451C17.8704 1.97938 16.9548 1.6001 16 1.6001ZM16 11.2001C13.349 11.2001 11.2 13.3491 11.2 16.0001C11.2 18.6511 13.349 20.8001 16 20.8001C18.6509 20.8001 20.8 18.6511 20.8 16.0001C20.8 13.3491 18.6509 11.2001 16 11.2001Z" fill="url(#paint0_linear_5449_14478)"/>
<defs>
<linearGradient id="paint0_linear_5449_14478" x1="1.70058" y1="1.21443" x2="29.7758" y2="31.1862" gradientUnits="userSpaceOnUse">
<stop offset="0.219337" stop-color="#92D5F1"/>
<stop offset="0.790678" stop-color="#5D6EFE"/>
</linearGradient>
</defs>
</svg>
