<svg width="25" height="31" viewBox="0 0 25 31" fill="none" xmlns="http://www.w3.org/2000/svg">
<path d="M7.86658 21.4263H17.4666V28.8676C17.4666 29.2148 17.2827 29.5327 16.9558 29.6497C16.2947 29.8864 14.9481 30.2263 12.6666 30.2263C10.385 30.2263 9.03845 29.8864 8.37732 29.6497C8.05042 29.5327 7.86658 29.2148 7.86658 28.8676V21.4263Z" fill="url(#paint0_linear_5928_793)"/>
<path d="M24.6666 12.5737C24.6666 19.2012 19.294 24.5737 12.6666 24.5737C6.03919 24.5737 0.666612 19.2012 0.666612 12.5737C0.666612 5.94632 6.03919 0.573733 12.6666 0.573733C19.294 0.573733 24.6666 5.94632 24.6666 12.5737Z" fill="url(#paint1_radial_5928_793)"/>
<path fill-rule="evenodd" clip-rule="evenodd" d="M5.46661 12.6001C5.46661 10.8328 6.8993 9.40015 8.66661 9.40015C10.4339 9.40015 11.8666 10.8328 11.8666 12.6001V15.8001H8.66661C6.8993 15.8001 5.46661 14.3675 5.46661 12.6001ZM8.66661 11.0001C7.78296 11.0001 7.06661 11.7165 7.06661 12.6001C7.06661 13.4838 7.78296 14.2001 8.66661 14.2001H10.2666V12.6001C10.2666 11.7165 9.55027 11.0001 8.66661 11.0001Z" fill="white"/>
<path fill-rule="evenodd" clip-rule="evenodd" d="M19.8666 12.6001C19.8666 10.8328 18.4339 9.40015 16.6666 9.40015C14.8993 9.40015 13.4666 10.8328 13.4666 12.6001V15.8001H16.6666C18.4339 15.8001 19.8666 14.3675 19.8666 12.6001ZM16.6666 11.0001C17.5503 11.0001 18.2666 11.7165 18.2666 12.6001C18.2666 13.4838 17.5503 14.2001 16.6666 14.2001H15.0666V12.6001C15.0666 11.7165 15.783 11.0001 16.6666 11.0001Z" fill="white"/>
<path fill-rule="evenodd" clip-rule="evenodd" d="M10.2666 14.2H15.0666V21.4C15.0666 21.8418 14.7084 22.2 14.2666 22.2C13.8248 22.2 13.4666 21.8418 13.4666 21.4V15.8H11.8666V21.4C11.8666 21.8418 11.5084 22.2 11.0666 22.2C10.6248 22.2 10.2666 21.8418 10.2666 21.4V14.2Z" fill="white"/>
<defs>
<linearGradient id="paint0_linear_5928_793" x1="11.8666" y1="21.4263" x2="11.8666" y2="29.4263" gradientUnits="userSpaceOnUse">
<stop stop-color="#FE66FF"/>
<stop offset="1" stop-color="#613BC0"/>
</linearGradient>
<radialGradient id="paint1_radial_5928_793" cx="0" cy="0" r="1" gradientUnits="userSpaceOnUse" gradientTransform="translate(15.0666 9.42622) rotate(123.69) scale(14.4222 11.1825)">
<stop stop-color="#FFEF78"/>
<stop offset="1" stop-color="#FFB44F"/>
<stop offset="1" stop-color="#F28B00"/>
</radialGradient>
</defs>
</svg>
