<svg width="38" height="41" viewBox="0 0 38 41" fill="none" xmlns="http://www.w3.org/2000/svg">
<g filter="url(#filter0_d_1624_3280)">
<path d="M27.7723 25.9301C26.4602 24.28 25.5339 23.44 25.5339 18.8909C25.5339 14.725 23.4636 13.2408 21.7596 12.52C21.5333 12.4244 21.3202 12.205 21.2513 11.9661C20.9524 10.9208 20.1144 10 19.0006 10C17.8868 10 17.0483 10.9214 16.7525 11.9672C16.6835 12.2087 16.4705 12.4244 16.2441 12.52C14.5381 13.2419 12.4699 14.7208 12.4699 18.8909C12.4673 23.44 11.541 24.28 10.229 25.9301C9.68533 26.6136 10.1615 27.64 11.1124 27.64H26.894C27.8397 27.64 28.3128 26.6105 27.7723 25.9301Z" fill="#92D5F1"/>
<path d="M22.2706 27.64C22.2706 28.5311 21.926 29.3858 21.3128 30.0159C20.6996 30.646 19.8679 31 19.0006 31C18.1334 31 17.3016 30.646 16.6884 30.0159C16.0752 29.3858 15.7307 28.5311 15.7307 27.64" fill="#92D5F1"/>
</g>
<defs>
<filter id="filter0_d_1624_3280" x="0" y="0" width="38" height="41" filterUnits="userSpaceOnUse" color-interpolation-filters="sRGB">
<feFlood flood-opacity="0" result="BackgroundImageFix"/>
<feColorMatrix in="SourceAlpha" type="matrix" values="0 0 0 0 0 0 0 0 0 0 0 0 0 0 0 0 0 0 127 0" result="hardAlpha"/>
<feOffset/>
<feGaussianBlur stdDeviation="5"/>
<feComposite in2="hardAlpha" operator="out"/>
<feColorMatrix type="matrix" values="0 0 0 0 0.572549 0 0 0 0 0.835294 0 0 0 0 0.945098 0 0 0 1 0"/>
<feBlend mode="normal" in2="BackgroundImageFix" result="effect1_dropShadow_1624_3280"/>
<feBlend mode="normal" in="SourceGraphic" in2="effect1_dropShadow_1624_3280" result="shape"/>
</filter>
</defs>
</svg>
