<svg xmlns="http://www.w3.org/2000/svg" width="20" height="20" viewBox="0 0 20 20" fill="none">
	<path d="M6.5 10L9.5 1.06016C9.82782 0.979948 10.1722 0.979948 10.5 1.06016L13.5 10H6.5Z" fill="url(#paint0_linear_5367_5686)"/>
	<path d="M13.5 10L10.5 18.9398C10.1722 19.0201 9.82782 19.0201 9.5 18.9398L6.5 10H13.5Z" fill="url(#paint1_linear_5367_5686)"/>
	<path d="M17.9748 8.6636L11.5207 1.66131C11.2369 1.3534 10.8795 1.15302 10.5 1.06016L13.5 10H18.5C18.5 9.52173 18.3249 9.04347 17.9748 8.6636Z" fill="url(#paint2_linear_5367_5686)"/>
	<path d="M2.0252 8.6636L8.47929 1.66131C8.76309 1.3534 9.12046 1.15302 9.50001 1.06016L6.5 10H1.5C1.5 9.52173 1.67507 9.04347 2.0252 8.6636Z" fill="url(#paint3_linear_5367_5686)"/>
	<path d="M17.9748 11.3364L11.5207 18.3387C11.2369 18.6466 10.8795 18.847 10.5 18.9398L13.5 10H18.5C18.5 10.4783 18.3249 10.9565 17.9748 11.3364Z" fill="url(#paint4_linear_5367_5686)"/>
	<path d="M2.0252 11.3364L8.47929 18.3387C8.76309 18.6466 9.12046 18.847 9.50001 18.9398L6.5 10H1.5C1.5 10.4783 1.67507 10.9565 2.0252 11.3364Z" fill="url(#paint5_linear_5367_5686)"/>
	<defs>
		<linearGradient id="paint0_linear_5367_5686" x1="10" y1="2" x2="10" y2="10" gradientUnits="userSpaceOnUse">
			<stop stop-color="#67A2FF"/>
			<stop offset="1" stop-color="#7DE0FF"/>
		</linearGradient>
		<linearGradient id="paint1_linear_5367_5686" x1="10" y1="18" x2="10" y2="10" gradientUnits="userSpaceOnUse">
			<stop stop-color="#7B56EA"/>
			<stop offset="1" stop-color="#6083FF"/>
		</linearGradient>
		<linearGradient id="paint2_linear_5367_5686" x1="16" y1="8.56018" x2="11.5" y2="1.56018" gradientUnits="userSpaceOnUse">
			<stop stop-color="#662FFF"/>
			<stop offset="1" stop-color="#67A2FF"/>
		</linearGradient>
		<linearGradient id="paint3_linear_5367_5686" x1="4" y1="9.5" x2="8.5" y2="2.5" gradientUnits="userSpaceOnUse">
			<stop stop-color="#662FFF"/>
			<stop offset="1" stop-color="#67A2FF"/>
		</linearGradient>
		<linearGradient id="paint4_linear_5367_5686" x1="12.5" y1="10.5" x2="14" y2="19" gradientUnits="userSpaceOnUse">
			<stop stop-color="#4B1CD0"/>
			<stop offset="1" stop-color="#7C56EA"/>
		</linearGradient>
		<linearGradient id="paint5_linear_5367_5686" x1="8.5" y1="10.5" x2="7" y2="18" gradientUnits="userSpaceOnUse">
			<stop stop-color="#4B1CD0"/>
			<stop offset="1" stop-color="#7C56EA"/>
		</linearGradient>
	</defs>
</svg>
