<svg width="223" height="306" viewBox="0 0 223 306" fill="none" xmlns="http://www.w3.org/2000/svg">
<g filter="url(#filter0_d_1614_3330)">
<path d="M15.5 31C15.5 36.3333 11.1667 37.6667 9 37.6667C14.2 37.6667 15.5 43.2222 15.5 46C15.5 40.6667 19.8333 38.2222 22 37.6667C16.8 37.6667 15.5 33.2222 15.5 31Z" fill="white"/>
<path d="M15.5 31C15.5 36.3333 11.1667 37.6667 9 37.6667C14.2 37.6667 15.5 43.2222 15.5 46C15.5 40.6667 19.8333 38.2222 22 37.6667C16.8 37.6667 15.5 33.2222 15.5 31Z" stroke="white" stroke-linecap="round" stroke-linejoin="round"/>
</g>
<g filter="url(#filter1_d_1614_3330)">
<path d="M8.5 51C8.5 54.2 6.16667 55 5 55C7.8 55 8.5 58.3333 8.5 60C8.5 56.8 10.8333 55.3333 12 55C9.2 55 8.5 52.3333 8.5 51Z" fill="white"/>
<path d="M8.5 51C8.5 54.2 6.16667 55 5 55C7.8 55 8.5 58.3333 8.5 60C8.5 56.8 10.8333 55.3333 12 55C9.2 55 8.5 52.3333 8.5 51Z" stroke="white" stroke-linecap="round" stroke-linejoin="round"/>
</g>
<g filter="url(#filter2_d_1614_3330)">
<path d="M19.5 56C19.5 59.2 17.1667 60 16 60C18.8 60 19.5 63.3333 19.5 65C19.5 61.8 21.8333 60.3333 23 60C20.2 60 19.5 57.3333 19.5 56Z" fill="white"/>
<path d="M19.5 56C19.5 59.2 17.1667 60 16 60C18.8 60 19.5 63.3333 19.5 65C19.5 61.8 21.8333 60.3333 23 60C20.2 60 19.5 57.3333 19.5 56Z" stroke="white" stroke-linecap="round" stroke-linejoin="round"/>
</g>
<g filter="url(#filter3_d_1614_3330)">
<path d="M212.931 115C212.931 119.316 209.644 120.395 208 120.395C211.945 120.395 212.931 124.89 212.931 127.138C212.931 122.822 216.218 120.844 217.862 120.395C213.917 120.395 212.931 116.798 212.931 115Z" fill="white"/>
<path d="M212.931 115C212.931 119.316 209.644 120.395 208 120.395C211.945 120.395 212.931 124.89 212.931 127.138C212.931 122.822 216.218 120.844 217.862 120.395C213.917 120.395 212.931 116.798 212.931 115Z" stroke="white" stroke-linecap="round" stroke-linejoin="round"/>
</g>
<g filter="url(#filter4_d_1614_3330)">
<path d="M163 5C163 7.84444 161 8.55556 160 8.55556C162.4 8.55556 163 11.5185 163 13C163 10.1556 165 8.85185 166 8.55556C163.6 8.55556 163 6.18519 163 5Z" fill="white"/>
<path d="M163 5C163 7.84444 161 8.55556 160 8.55556C162.4 8.55556 163 11.5185 163 13C163 10.1556 165 8.85185 166 8.55556C163.6 8.55556 163 6.18519 163 5Z" stroke="white" stroke-linecap="round" stroke-linejoin="round"/>
</g>
<g filter="url(#filter5_d_1614_3330)">
<path d="M47.5 183C47.5 185.133 45.8333 185.667 45 185.667C47 185.667 47.5 187.889 47.5 189C47.5 186.867 49.1667 185.889 50 185.667C48 185.667 47.5 183.889 47.5 183Z" fill="white"/>
<path d="M47.5 183C47.5 185.133 45.8333 185.667 45 185.667C47 185.667 47.5 187.889 47.5 189C47.5 186.867 49.1667 185.889 50 185.667C48 185.667 47.5 183.889 47.5 183Z" stroke="white" stroke-linecap="round" stroke-linejoin="round"/>
</g>
<g filter="url(#filter6_d_1614_3330)">
<path d="M198.414 179C198.414 181.697 196.138 182.372 195 182.372C197.731 182.372 198.414 185.181 198.414 186.586C198.414 183.889 200.69 182.653 201.828 182.372C199.097 182.372 198.414 180.124 198.414 179Z" fill="white"/>
<path d="M198.414 179C198.414 181.697 196.138 182.372 195 182.372C197.731 182.372 198.414 185.181 198.414 186.586C198.414 183.889 200.69 182.653 201.828 182.372C199.097 182.372 198.414 180.124 198.414 179Z" stroke="white" stroke-linecap="round" stroke-linejoin="round"/>
</g>
<g filter="url(#filter7_d_1614_3330)">
<path d="M209.897 179C209.897 180.618 208.632 181.023 208 181.023C209.517 181.023 209.897 182.709 209.897 183.552C209.897 181.933 211.161 181.192 211.793 181.023C210.276 181.023 209.897 179.674 209.897 179Z" fill="white"/>
<path d="M209.897 179C209.897 180.618 208.632 181.023 208 181.023C209.517 181.023 209.897 182.709 209.897 183.552C209.897 181.933 211.161 181.192 211.793 181.023C210.276 181.023 209.897 179.674 209.897 179Z" stroke="white" stroke-linecap="round" stroke-linejoin="round"/>
</g>
<g filter="url(#filter8_d_1614_3330)">
<path d="M63.4138 293C63.4138 295.697 61.1379 296.372 60 296.372C62.731 296.372 63.4138 299.181 63.4138 300.586C63.4138 297.889 65.6897 296.653 66.8276 296.372C64.0966 296.372 63.4138 294.124 63.4138 293Z" fill="white"/>
<path d="M63.4138 293C63.4138 295.697 61.1379 296.372 60 296.372C62.731 296.372 63.4138 299.181 63.4138 300.586C63.4138 297.889 65.6897 296.653 66.8276 296.372C64.0966 296.372 63.4138 294.124 63.4138 293Z" stroke="white" stroke-linecap="round" stroke-linejoin="round"/>
</g>
<g filter="url(#filter9_d_1614_3330)">
<path d="M74.8966 293C74.8966 294.618 73.6322 295.023 73 295.023C74.5172 295.023 74.8966 296.709 74.8966 297.552C74.8966 295.933 76.1609 295.192 76.7931 295.023C75.2759 295.023 74.8966 293.674 74.8966 293Z" fill="white"/>
<path d="M74.8966 293C74.8966 294.618 73.6322 295.023 73 295.023C74.5172 295.023 74.8966 296.709 74.8966 297.552C74.8966 295.933 76.1609 295.192 76.7931 295.023C75.2759 295.023 74.8966 293.674 74.8966 293Z" stroke="white" stroke-linecap="round" stroke-linejoin="round"/>
</g>
<defs>
<filter id="filter0_d_1614_3330" x="4.3" y="26.3" width="22.4" height="24.4" filterUnits="userSpaceOnUse" color-interpolation-filters="sRGB">
<feFlood flood-opacity="0" result="BackgroundImageFix"/>
<feColorMatrix in="SourceAlpha" type="matrix" values="0 0 0 0 0 0 0 0 0 0 0 0 0 0 0 0 0 0 127 0" result="hardAlpha"/>
<feMorphology radius="0.2" operator="dilate" in="SourceAlpha" result="effect1_dropShadow_1614_3330"/>
<feOffset/>
<feGaussianBlur stdDeviation="2"/>
<feColorMatrix type="matrix" values="0 0 0 0 1 0 0 0 0 1 0 0 0 0 1 0 0 0 1 0"/>
<feBlend mode="normal" in2="BackgroundImageFix" result="effect1_dropShadow_1614_3330"/>
<feBlend mode="normal" in="SourceGraphic" in2="effect1_dropShadow_1614_3330" result="shape"/>
</filter>
<filter id="filter1_d_1614_3330" x="0.3" y="46.3" width="16.4" height="18.4" filterUnits="userSpaceOnUse" color-interpolation-filters="sRGB">
<feFlood flood-opacity="0" result="BackgroundImageFix"/>
<feColorMatrix in="SourceAlpha" type="matrix" values="0 0 0 0 0 0 0 0 0 0 0 0 0 0 0 0 0 0 127 0" result="hardAlpha"/>
<feMorphology radius="0.2" operator="dilate" in="SourceAlpha" result="effect1_dropShadow_1614_3330"/>
<feOffset/>
<feGaussianBlur stdDeviation="2"/>
<feColorMatrix type="matrix" values="0 0 0 0 1 0 0 0 0 1 0 0 0 0 1 0 0 0 1 0"/>
<feBlend mode="normal" in2="BackgroundImageFix" result="effect1_dropShadow_1614_3330"/>
<feBlend mode="normal" in="SourceGraphic" in2="effect1_dropShadow_1614_3330" result="shape"/>
</filter>
<filter id="filter2_d_1614_3330" x="11.3" y="51.3" width="16.4" height="18.4" filterUnits="userSpaceOnUse" color-interpolation-filters="sRGB">
<feFlood flood-opacity="0" result="BackgroundImageFix"/>
<feColorMatrix in="SourceAlpha" type="matrix" values="0 0 0 0 0 0 0 0 0 0 0 0 0 0 0 0 0 0 127 0" result="hardAlpha"/>
<feMorphology radius="0.2" operator="dilate" in="SourceAlpha" result="effect1_dropShadow_1614_3330"/>
<feOffset/>
<feGaussianBlur stdDeviation="2"/>
<feColorMatrix type="matrix" values="0 0 0 0 1 0 0 0 0 1 0 0 0 0 1 0 0 0 1 0"/>
<feBlend mode="normal" in2="BackgroundImageFix" result="effect1_dropShadow_1614_3330"/>
<feBlend mode="normal" in="SourceGraphic" in2="effect1_dropShadow_1614_3330" result="shape"/>
</filter>
<filter id="filter3_d_1614_3330" x="203.3" y="110.3" width="19.2623" height="21.5379" filterUnits="userSpaceOnUse" color-interpolation-filters="sRGB">
<feFlood flood-opacity="0" result="BackgroundImageFix"/>
<feColorMatrix in="SourceAlpha" type="matrix" values="0 0 0 0 0 0 0 0 0 0 0 0 0 0 0 0 0 0 127 0" result="hardAlpha"/>
<feMorphology radius="0.2" operator="dilate" in="SourceAlpha" result="effect1_dropShadow_1614_3330"/>
<feOffset/>
<feGaussianBlur stdDeviation="2"/>
<feColorMatrix type="matrix" values="0 0 0 0 1 0 0 0 0 1 0 0 0 0 1 0 0 0 1 0"/>
<feBlend mode="normal" in2="BackgroundImageFix" result="effect1_dropShadow_1614_3330"/>
<feBlend mode="normal" in="SourceGraphic" in2="effect1_dropShadow_1614_3330" result="shape"/>
</filter>
<filter id="filter4_d_1614_3330" x="155.3" y="0.3" width="15.4" height="17.4" filterUnits="userSpaceOnUse" color-interpolation-filters="sRGB">
<feFlood flood-opacity="0" result="BackgroundImageFix"/>
<feColorMatrix in="SourceAlpha" type="matrix" values="0 0 0 0 0 0 0 0 0 0 0 0 0 0 0 0 0 0 127 0" result="hardAlpha"/>
<feMorphology radius="0.2" operator="dilate" in="SourceAlpha" result="effect1_dropShadow_1614_3330"/>
<feOffset/>
<feGaussianBlur stdDeviation="2"/>
<feColorMatrix type="matrix" values="0 0 0 0 1 0 0 0 0 1 0 0 0 0 1 0 0 0 1 0"/>
<feBlend mode="normal" in2="BackgroundImageFix" result="effect1_dropShadow_1614_3330"/>
<feBlend mode="normal" in="SourceGraphic" in2="effect1_dropShadow_1614_3330" result="shape"/>
</filter>
<filter id="filter5_d_1614_3330" x="40.3" y="178.3" width="14.4" height="15.4" filterUnits="userSpaceOnUse" color-interpolation-filters="sRGB">
<feFlood flood-opacity="0" result="BackgroundImageFix"/>
<feColorMatrix in="SourceAlpha" type="matrix" values="0 0 0 0 0 0 0 0 0 0 0 0 0 0 0 0 0 0 127 0" result="hardAlpha"/>
<feMorphology radius="0.2" operator="dilate" in="SourceAlpha" result="effect1_dropShadow_1614_3330"/>
<feOffset/>
<feGaussianBlur stdDeviation="2"/>
<feColorMatrix type="matrix" values="0 0 0 0 1 0 0 0 0 1 0 0 0 0 1 0 0 0 1 0"/>
<feBlend mode="normal" in2="BackgroundImageFix" result="effect1_dropShadow_1614_3330"/>
<feBlend mode="normal" in="SourceGraphic" in2="effect1_dropShadow_1614_3330" result="shape"/>
</filter>
<filter id="filter6_d_1614_3330" x="190.3" y="174.3" width="16.2271" height="16.9862" filterUnits="userSpaceOnUse" color-interpolation-filters="sRGB">
<feFlood flood-opacity="0" result="BackgroundImageFix"/>
<feColorMatrix in="SourceAlpha" type="matrix" values="0 0 0 0 0 0 0 0 0 0 0 0 0 0 0 0 0 0 127 0" result="hardAlpha"/>
<feMorphology radius="0.2" operator="dilate" in="SourceAlpha" result="effect1_dropShadow_1614_3330"/>
<feOffset/>
<feGaussianBlur stdDeviation="2"/>
<feColorMatrix type="matrix" values="0 0 0 0 1 0 0 0 0 1 0 0 0 0 1 0 0 0 1 0"/>
<feBlend mode="normal" in2="BackgroundImageFix" result="effect1_dropShadow_1614_3330"/>
<feBlend mode="normal" in="SourceGraphic" in2="effect1_dropShadow_1614_3330" result="shape"/>
</filter>
<filter id="filter7_d_1614_3330" x="203.3" y="174.3" width="13.193" height="13.9518" filterUnits="userSpaceOnUse" color-interpolation-filters="sRGB">
<feFlood flood-opacity="0" result="BackgroundImageFix"/>
<feColorMatrix in="SourceAlpha" type="matrix" values="0 0 0 0 0 0 0 0 0 0 0 0 0 0 0 0 0 0 127 0" result="hardAlpha"/>
<feMorphology radius="0.2" operator="dilate" in="SourceAlpha" result="effect1_dropShadow_1614_3330"/>
<feOffset/>
<feGaussianBlur stdDeviation="2"/>
<feColorMatrix type="matrix" values="0 0 0 0 1 0 0 0 0 1 0 0 0 0 1 0 0 0 1 0"/>
<feBlend mode="normal" in2="BackgroundImageFix" result="effect1_dropShadow_1614_3330"/>
<feBlend mode="normal" in="SourceGraphic" in2="effect1_dropShadow_1614_3330" result="shape"/>
</filter>
<filter id="filter8_d_1614_3330" x="55.3" y="288.3" width="16.2271" height="16.9862" filterUnits="userSpaceOnUse" color-interpolation-filters="sRGB">
<feFlood flood-opacity="0" result="BackgroundImageFix"/>
<feColorMatrix in="SourceAlpha" type="matrix" values="0 0 0 0 0 0 0 0 0 0 0 0 0 0 0 0 0 0 127 0" result="hardAlpha"/>
<feMorphology radius="0.2" operator="dilate" in="SourceAlpha" result="effect1_dropShadow_1614_3330"/>
<feOffset/>
<feGaussianBlur stdDeviation="2"/>
<feColorMatrix type="matrix" values="0 0 0 0 1 0 0 0 0 1 0 0 0 0 1 0 0 0 1 0"/>
<feBlend mode="normal" in2="BackgroundImageFix" result="effect1_dropShadow_1614_3330"/>
<feBlend mode="normal" in="SourceGraphic" in2="effect1_dropShadow_1614_3330" result="shape"/>
</filter>
<filter id="filter9_d_1614_3330" x="68.3" y="288.3" width="13.193" height="13.9518" filterUnits="userSpaceOnUse" color-interpolation-filters="sRGB">
<feFlood flood-opacity="0" result="BackgroundImageFix"/>
<feColorMatrix in="SourceAlpha" type="matrix" values="0 0 0 0 0 0 0 0 0 0 0 0 0 0 0 0 0 0 127 0" result="hardAlpha"/>
<feMorphology radius="0.2" operator="dilate" in="SourceAlpha" result="effect1_dropShadow_1614_3330"/>
<feOffset/>
<feGaussianBlur stdDeviation="2"/>
<feColorMatrix type="matrix" values="0 0 0 0 1 0 0 0 0 1 0 0 0 0 1 0 0 0 1 0"/>
<feBlend mode="normal" in2="BackgroundImageFix" result="effect1_dropShadow_1614_3330"/>
<feBlend mode="normal" in="SourceGraphic" in2="effect1_dropShadow_1614_3330" result="shape"/>
</filter>
</defs>
</svg>
