<svg width="38" height="38" viewBox="0 0 38 38" fill="none" xmlns="http://www.w3.org/2000/svg">
<g filter="url(#filter0_d_4_19)">
<path d="M20.25 10H17.75C17.1977 10 16.75 10.4477 16.75 11V11.6116C16.75 11.9928 16.506 12.3313 16.1443 12.4519C15.8261 12.558 15.4751 12.4751 15.2379 12.2379L14.4571 11.4571C14.0666 11.0666 13.4334 11.0666 13.0429 11.4571L11.3829 13.1171C11.0226 13.4774 10.9908 14.051 11.3091 14.4489L11.9314 15.2267C12.13 15.475 12.1893 15.8072 12.0887 16.1089C11.9611 16.4918 11.6028 16.75 11.1992 16.75H11C10.4477 16.75 10 17.1977 10 17.75V20.25C10 20.8023 10.4477 21.25 11 21.25H11.341C11.6746 21.25 11.9862 21.4167 12.1712 21.6943L12.2274 21.7786C12.4586 22.1254 12.4129 22.5871 12.1182 22.8818C11.7768 23.2232 11.7768 23.7768 12.1182 24.1182L13.8867 25.8867C14.2386 26.2386 14.7957 26.2782 15.1938 25.9796L15.4257 25.8057C15.7552 25.5586 16.2163 25.5913 16.5076 25.8826C16.6628 26.0378 16.75 26.2483 16.75 26.4678V27C16.75 27.5523 17.1977 28 17.75 28H20.25C20.8023 28 21.25 27.5523 21.25 27V26.8117C21.25 26.4016 21.5124 26.0375 21.9014 25.9079C22.198 25.809 22.5242 25.8619 22.7743 26.0495L23.1389 26.3229C23.555 26.635 24.1408 26.576 24.4863 26.1873L26.2486 24.2047C26.6003 23.809 26.5827 23.2077 26.2083 22.8333L26.1371 22.7621C25.8999 22.5249 25.817 22.1739 25.9231 21.8557C26.0437 21.494 26.3822 21.25 26.7634 21.25H27C27.5523 21.25 28 20.8023 28 20.25V17.75C28 17.1977 27.5523 16.75 27 16.75H26.743C26.3643 16.75 26.018 16.536 25.8486 16.1972L25.7271 15.9542C25.5232 15.5464 25.6401 15.0512 26.0048 14.7776C26.4641 14.4332 26.5118 13.7618 26.1059 13.3559L24.2071 11.4571C23.8166 11.0666 23.1834 11.0666 22.7929 11.4571L22.3192 11.9308C22.1286 12.1214 21.8374 12.1687 21.5962 12.0481C21.384 11.942 21.25 11.7251 21.25 11.4879V11C21.25 10.4477 20.8023 10 20.25 10Z" fill="#92D5F1"/>
</g>
<circle cx="18.999" cy="19" r="3" fill="#2F4F6A"/>
<defs>
<filter id="filter0_d_4_19" x="0" y="0" width="38" height="38" filterUnits="userSpaceOnUse" color-interpolation-filters="sRGB">
<feFlood flood-opacity="0" result="BackgroundImageFix"/>
<feColorMatrix in="SourceAlpha" type="matrix" values="0 0 0 0 0 0 0 0 0 0 0 0 0 0 0 0 0 0 127 0" result="hardAlpha"/>
<feOffset/>
<feGaussianBlur stdDeviation="5"/>
<feComposite in2="hardAlpha" operator="out"/>
<feColorMatrix type="matrix" values="0 0 0 0 0.572549 0 0 0 0 0.835294 0 0 0 0 0.945098 0 0 0 1 0"/>
<feBlend mode="normal" in2="BackgroundImageFix" result="effect1_dropShadow_4_19"/>
<feBlend mode="normal" in="SourceGraphic" in2="effect1_dropShadow_4_19" result="shape"/>
</filter>
</defs>
</svg>
