<svg xmlns="http://www.w3.org/2000/svg" width="24" height="24" viewBox="0 0 24 24" fill="none">
	<path fill-rule="evenodd" clip-rule="evenodd" d="M1.46447 15.4645C2.40215 14.5268 3.67392 14 5 14H13C14.3261 14 15.5979 14.5268 16.5355 15.4645C17.4732 16.4021 18 17.6739 18 19V21C18 21.5523 17.5523 22 17 22C17 22 1.55228 22 1 22C0.447715 22 0 21.5523 0 21V19C0 17.6739 0.526784 16.4021 1.46447 15.4645Z" fill="url(#paint0_linear_5841_505)"/>
	<path fill-rule="evenodd" clip-rule="evenodd" d="M4 7C4 4.23858 6.23858 2 9 2C11.7614 2 14 4.23858 14 7C14 9.76142 11.7614 12 9 12C6.23858 12 4 9.76142 4 7Z" fill="url(#paint1_linear_5841_505)"/>
	<path fill-rule="evenodd" clip-rule="evenodd" d="M19.0318 14.88C19.1698 14.3453 19.7153 14.0237 20.25 14.1618C21.3227 14.4387 22.273 15.0641 22.9517 15.9397C23.6304 16.8152 23.9992 17.8914 24 18.9993L24 21C24 21.5523 23.5523 22 23 22C22.4477 22 22 21.5523 22 21L22 19.0007C22 19.0006 22 19.0008 22 19.0007C21.9994 18.3361 21.7782 17.6902 21.371 17.165C20.9638 16.6396 20.3936 16.2644 19.75 16.0982C19.2153 15.9602 18.8937 15.4148 19.0318 14.88Z" fill="url(#paint2_linear_5841_505)"/>
	<path fill-rule="evenodd" clip-rule="evenodd" d="M15.0312 2.88196C15.1682 2.34694 15.713 2.02426 16.248 2.16125C17.3236 2.43663 18.2768 3.06213 18.9576 3.93914C19.6383 4.81615 20.0078 5.89479 20.0078 7.005C20.0078 8.11521 19.6383 9.19385 18.9576 10.0709C18.2768 10.9479 17.3236 11.5734 16.248 11.8488C15.713 11.9857 15.1682 11.6631 15.0312 11.128C14.8943 10.593 15.2169 10.0482 15.752 9.91125C16.3973 9.74603 16.9692 9.37073 17.3777 8.84452C17.7861 8.31831 18.0078 7.67113 18.0078 7.005C18.0078 6.33887 17.7861 5.69169 17.3777 5.16548C16.9692 4.63928 16.3973 4.26398 15.752 4.09875C15.2169 3.96176 14.8943 3.41699 15.0312 2.88196Z" fill="url(#paint3_linear_5841_505)"/>
	<defs>
		<linearGradient id="paint0_linear_5841_505" x1="0.0628761" y1="13.8929" x2="5.60899" y2="27.2146" gradientUnits="userSpaceOnUse">
			<stop offset="0.219337" stop-color="#92D5F1"/>
			<stop offset="0.790678" stop-color="#5D6EFE"/>
		</linearGradient>
		<linearGradient id="paint1_linear_5841_505" x1="4.03493" y1="1.86609" x2="13.7833" y2="12.273" gradientUnits="userSpaceOnUse">
			<stop offset="0.219337" stop-color="#92D5F1"/>
			<stop offset="0.790678" stop-color="#5D6EFE"/>
		</linearGradient>
		<linearGradient id="paint2_linear_5841_505" x1="19.0172" y1="14.0244" x2="26.1607" y2="18.8694" gradientUnits="userSpaceOnUse">
			<stop offset="0.219337" stop-color="#92D5F1"/>
			<stop offset="0.790678" stop-color="#5D6EFE"/>
		</linearGradient>
		<linearGradient id="paint3_linear_5841_505" x1="15.0172" y1="1.99919" x2="23.0486" y2="6.40293" gradientUnits="userSpaceOnUse">
			<stop offset="0.219337" stop-color="#92D5F1"/>
			<stop offset="0.790678" stop-color="#5D6EFE"/>
		</linearGradient>
	</defs>
</svg>
