<svg width="38" height="37" viewBox="0 0 38 37" fill="none" xmlns="http://www.w3.org/2000/svg">
<g filter="url(#filter0_d_2444_2570)">
<path d="M19.0007 10.334C18.6213 10.334 18.2419 10.4629 17.9328 10.7207L10.84 16.6475C10.3522 17.0547 10.1852 17.7563 10.487 18.3159C10.9045 19.0864 11.8874 19.2476 12.5217 18.7158L18.7868 13.4819C18.9113 13.3779 19.09 13.3779 19.2145 13.4819L25.4797 18.7158C25.7287 18.9253 26.0319 19.0264 26.3337 19.0264C26.7248 19.0264 27.1115 18.8564 27.3766 18.5254C27.8351 17.9497 27.7048 17.1016 27.1408 16.6299L26.3337 15.9561V12.5562C26.3337 12.0654 25.9367 11.667 25.446 11.667H24.5568C24.0661 11.667 23.6676 12.0654 23.6676 12.5562V13.7266L20.0685 10.7207C19.7594 10.4629 19.38 10.334 19.0007 10.334ZM18.9992 14.6421L11.6662 20.7681V23.667C11.6662 25.1392 12.86 26.333 14.3322 26.333H23.6662C25.1383 26.333 26.3322 25.1392 26.3322 23.667V20.7681L18.9992 14.6421ZM17.6676 19.6665H20.3337C20.7028 19.6665 21.0002 19.9653 21.0002 20.333V23.667H17.0011V20.333C17.0011 19.9653 17.2985 19.6665 17.6676 19.6665Z" fill="#92D5F1"/>
</g>
<defs>
<filter id="filter0_d_2444_2570" x="-3" y="-3" width="44" height="44" filterUnits="userSpaceOnUse" color-interpolation-filters="sRGB">
<feFlood flood-opacity="0" result="BackgroundImageFix"/>
<feColorMatrix in="SourceAlpha" type="matrix" values="0 0 0 0 0 0 0 0 0 0 0 0 0 0 0 0 0 0 127 0" result="hardAlpha"/>
<feOffset/>
<feGaussianBlur stdDeviation="5"/>
<feColorMatrix type="matrix" values="0 0 0 0 0.572549 0 0 0 0 0.835294 0 0 0 0 0.945098 0 0 0 0.5 0"/>
<feBlend mode="normal" in2="BackgroundImageFix" result="effect1_dropShadow_2444_2570"/>
<feBlend mode="normal" in="SourceGraphic" in2="effect1_dropShadow_2444_2570" result="shape"/>
</filter>
</defs>
</svg>
