<svg width="38" height="38" viewBox="0 0 38 38" fill="none" xmlns="http://www.w3.org/2000/svg">
<g clip-path="url(#clip0_2528_2570)">
<g filter="url(#filter0_d_2528_2570)">
<path d="M24.5735 9.53174C23.6552 9.53174 22.8635 10.1967 22.5469 11.1151C23.7502 11.6534 24.6685 12.8251 24.9852 14.2501C25.9669 14.0284 26.6952 13.0784 26.6952 11.9384C26.6952 10.5767 25.7452 9.53174 24.5735 9.53174Z" fill="#92D5F1" stroke="#92D5F1" stroke-width="0.00666667"/>
<path d="M26.5371 15.1685C26.1254 15.5485 25.6188 15.8018 25.0488 15.8968C24.9538 16.7518 24.6371 17.5435 24.1621 18.1768H27.6771C28.1204 18.1768 28.4688 17.8285 28.4688 17.3851V17.0051C28.4688 16.1501 27.5188 15.6118 26.5371 15.1685Z" fill="#92D5F1" stroke="#92D5F1" stroke-width="0.00666667"/>
<path d="M23.1791 19C22.5458 19.57 21.7541 19.9183 20.8991 19.9183C20.8358 20.9 20.5508 21.7867 20.1074 22.5467H24.5408C25.0474 22.5467 25.4908 22.135 25.4908 21.5967V21.2167C25.4591 20.1717 24.3191 19.5383 23.1791 19Z" fill="#92D5F1" stroke="#92D5F1" stroke-width="0.00666667"/>
<path d="M19.095 23.8133C18.2083 24.7 17.005 25.2067 15.7383 25.2067C14.44 25.2067 13.2367 24.6683 12.35 23.75C10.8933 24.4467 9.5 25.3333 9.5 26.6317V27.2333C9.5 27.93 10.07 28.4683 10.735 28.4683H20.6467C21.3433 28.4683 21.8817 27.8983 21.8817 27.2333V26.6633C21.8817 25.3333 20.5517 24.4783 19.095 23.8133Z" fill="#92D5F1" stroke="#92D5F1" stroke-width="0.00666667"/>
<path d="M15.7067 23.2434C17.578 23.2434 19.095 21.5704 19.095 19.5067C19.095 17.443 17.578 15.77 15.7067 15.77C13.8354 15.77 12.3184 17.443 12.3184 19.5067C12.3184 21.5704 13.8354 23.2434 15.7067 23.2434Z" fill="#92D5F1" stroke="#92D5F1" stroke-width="0.00666667"/>
<path d="M20.8055 12.5083C19.6339 12.5083 18.6522 13.3633 18.3672 14.5666C19.5389 15.3266 20.3939 16.625 20.7422 18.1133C20.7739 18.1133 20.7739 18.1133 20.8055 18.1133C22.1989 18.1133 23.3389 16.8466 23.3389 15.295C23.3705 13.775 22.2305 12.5083 20.8055 12.5083Z" fill="#92D5F1" stroke="#92D5F1" stroke-width="0.00666667"/>
</g>
</g>
<defs>
<filter id="filter0_d_2528_2570" x="-0.503906" y="-0.47168" width="38.9766" height="38.9434" filterUnits="userSpaceOnUse" color-interpolation-filters="sRGB">
<feFlood flood-opacity="0" result="BackgroundImageFix"/>
<feColorMatrix in="SourceAlpha" type="matrix" values="0 0 0 0 0 0 0 0 0 0 0 0 0 0 0 0 0 0 127 0" result="hardAlpha"/>
<feOffset/>
<feGaussianBlur stdDeviation="5"/>
<feComposite in2="hardAlpha" operator="out"/>
<feColorMatrix type="matrix" values="0 0 0 0 0.572549 0 0 0 0 0.835294 0 0 0 0 0.945098 0 0 0 1 0"/>
<feBlend mode="normal" in2="BackgroundImageFix" result="effect1_dropShadow_2528_2570"/>
<feBlend mode="normal" in="SourceGraphic" in2="effect1_dropShadow_2528_2570" result="shape"/>
</filter>
<clipPath id="clip0_2528_2570">
<rect width="38" height="38" fill="white"/>
</clipPath>
</defs>
</svg>
