<?xml version="1.0" encoding="UTF-8"?>
<svg xmlns="http://www.w3.org/2000/svg" xmlns:xlink="http://www.w3.org/1999/xlink" viewBox="0 0 240 240" width="240px" height="240px">
<g id="surface16256281">
<path style=" stroke:none;fill-rule:nonzero;fill:rgb(100%,43.921569%,3.529412%);fill-opacity:1;" d="M 182.625 24 C 178.53125 24 174.4375 25.5625 171.3125 28.6875 L 152 48 L 192 88 L 211.3125 68.6875 C 217.558594 62.441406 217.558594 52.308594 211.3125 46.0625 L 193.9375 28.6875 C 190.8125 25.5625 186.71875 24 182.625 24 Z M 136 64 L 42.078125 157.921875 C 42.078125 157.921875 49.421875 157.265625 52.15625 160 C 54.890625 162.734375 52.640625 180.640625 56 184 C 59.359375 187.359375 77.152344 184.996094 79.703125 187.546875 C 82.253906 190.097656 82.078125 197.921875 82.078125 197.921875 L 176 104 Z M 32 184 L 24.453125 205.375 C 24.15625 206.21875 24.003906 207.105469 24 208 C 24 212.417969 27.582031 216 32 216 C 32.894531 215.996094 33.78125 215.84375 34.625 215.546875 C 34.652344 215.535156 34.675781 215.527344 34.703125 215.515625 L 34.90625 215.453125 C 34.921875 215.441406 34.9375 215.433594 34.953125 215.421875 L 56 208 Z M 32 184 "/>
</g>
</svg>
