<?xml version="1.0" encoding="UTF-8"?>
<svg xmlns="http://www.w3.org/2000/svg" xmlns:xlink="http://www.w3.org/1999/xlink" viewBox="0 0 256 256" width="256px" height="256px">
<g id="surface253741431">
<path style=" stroke:none;fill-rule:nonzero;fill:rgb(79.607844%,10.196079%,2.352941%);fill-opacity:1;" d="M 112 24 C 103.164062 24 96 31.164062 96 40 L 96 48 L 94.398438 48 L 40 56 L 40 68 L 216 68 L 216 56 L 161.601562 48 L 160 48 L 160 40 C 160 31.164062 152.835938 24 144 24 Z M 112 40 L 144 40 L 144 48 L 112 48 Z M 48 76 L 58.804688 209.289062 C 59.476562 217.597656 66.421875 224 74.757812 224 L 181.25 224 C 189.585938 224 196.519531 217.605469 197.195312 209.296875 L 207.695312 80 Z M 80 104 C 84.421875 104 88 107.578125 88 112 L 88 204 L 76 204 L 72 112 C 72 107.578125 75.578125 104 80 104 Z M 128 104 C 134.628906 104 140 109.371094 140 116 L 140 204 L 116 204 L 116 116 C 116 109.371094 121.371094 104 128 104 Z M 176 104 C 180.421875 104 184 107.578125 184 112 L 180 204 L 168 204 L 168 112 C 168 107.578125 171.578125 104 176 104 Z M 176 104 "/>
</g>
</svg>
