<svg xmlns="http://www.w3.org/2000/svg" width="24" height="24" viewBox="0 0 24 24" fill="none">
	<path d="M15.05 5C16.0267 5.19057 16.9244 5.66826 17.6281 6.37194C18.3317 7.07561 18.8094 7.97326 19 8.95M15.05 1C17.0793 1.22544 18.9716 2.13417 20.4162 3.57701C21.8609 5.01984 22.772 6.91101 23 8.94" stroke="#88B3D2" stroke-width="2" stroke-linecap="round" stroke-linejoin="round"/>
	<path fill-rule="evenodd" clip-rule="evenodd" d="M1.04601 4.28073C0.720813 2.46807 2.16738 1 3.87628 1H7.22102C8.57387 1 9.75935 1.90546 10.1153 3.21065L10.9457 6.25554C11.198 7.18051 10.993 8.17033 10.394 8.91898L9.46241 10.0835C9.93498 10.8523 10.743 12.0802 11.4557 12.7929C12.1446 13.4818 13.3172 14.2615 14.0928 14.7416L14.7408 14.0936C15.4859 13.3485 16.5674 13.0489 17.5897 13.3045L20.9762 14.1511C22.3117 14.485 23.2486 15.685 23.2486 17.0616V20C23.2486 21.6368 21.8906 23.0616 20.1276 22.83C17.2811 22.456 11.9394 21.2398 7.57288 17.2372C3.16874 13.2 1.59651 7.34931 1.04601 4.28073ZM3.87628 3C3.27881 3 2.93251 3.4701 3.01458 3.92757C3.5425 6.87026 5.01456 12.1789 8.92433 15.7628C12.8556 19.3665 17.7242 20.497 20.3881 20.847C20.8154 20.9031 21.2486 20.5723 21.2486 20V17.0616C21.2486 16.6027 20.9363 16.2027 20.4911 16.0914L17.1046 15.2448C16.7639 15.1596 16.4034 15.2594 16.155 15.5078L15.4942 16.1687C14.8614 16.8014 13.8632 16.9503 13.0703 16.4608C12.2972 15.9836 10.9214 15.087 10.0415 14.2071C9.13528 13.3009 8.20972 11.8666 7.74247 11.1047C7.29996 10.3831 7.38203 9.48244 7.89097 8.84626L8.83231 7.66959C9.03195 7.42004 9.10029 7.0901 9.01621 6.78178L8.18578 3.73688C8.06713 3.30182 7.67197 3 7.22102 3H3.87628Z" fill="#88B3D2"/>
</svg>
