<svg width="24" height="19" viewBox="0 0 24 19" fill="none" xmlns="http://www.w3.org/2000/svg">
<path d="M21.6 19H6C5.36348 19 4.75303 18.7498 4.30294 18.3044C3.85286 17.859 3.6 17.2549 3.6 16.625V5.86625L0.276 1.9475C0.108 1.74562 0 1.4725 0 1.1875C0 0.872555 0.126428 0.57051 0.351472 0.347811C0.576515 0.125111 0.88174 0 1.2 0H21.6C22.2365 0 22.847 0.250222 23.2971 0.695621C23.7471 1.14102 24 1.74511 24 2.375V16.625C24 17.2549 23.7471 17.859 23.2971 18.3044C22.847 18.7498 22.2365 19 21.6 19ZM7.8 3.5625C7.64087 3.5625 7.48826 3.62506 7.37574 3.73641C7.26321 3.84776 7.2 3.99878 7.2 4.15625V5.34375C7.2 5.50122 7.26321 5.65225 7.37574 5.7636C7.48826 5.87494 7.64087 5.9375 7.8 5.9375H19.8C19.9591 5.9375 20.1117 5.87494 20.2243 5.7636C20.3368 5.65225 20.4 5.50122 20.4 5.34375V4.15625C20.4 3.99878 20.3368 3.84776 20.2243 3.73641C20.1117 3.62506 19.9591 3.5625 19.8 3.5625H7.8ZM7.8 8.3125C7.64087 8.3125 7.48826 8.37506 7.37574 8.4864C7.26321 8.59775 7.2 8.74878 7.2 8.90625V10.0938C7.2 10.2512 7.26321 10.4022 7.37574 10.5136C7.48826 10.6249 7.64087 10.6875 7.8 10.6875H19.8C19.9591 10.6875 20.1117 10.6249 20.2243 10.5136C20.3368 10.4022 20.4 10.2512 20.4 10.0938V8.90625C20.4 8.74878 20.3368 8.59775 20.2243 8.4864C20.1117 8.37506 19.9591 8.3125 19.8 8.3125H7.8ZM7.8 13.0625C7.64087 13.0625 7.48826 13.1251 7.37574 13.2364C7.26321 13.3478 7.2 13.4988 7.2 13.6562V14.8438C7.2 15.0012 7.26321 15.1522 7.37574 15.2636C7.48826 15.3749 7.64087 15.4375 7.8 15.4375H13.8C13.9591 15.4375 14.1117 15.3749 14.2243 15.2636C14.3368 15.1522 14.4 15.0012 14.4 14.8438V13.6562C14.4 13.4988 14.3368 13.3478 14.2243 13.2364C14.1117 13.1251 13.9591 13.0625 13.8 13.0625H7.8Z" fill="#07B9F1"/>
</svg>
