<svg width="44" height="35" viewBox="0 0 44 35" fill="none" xmlns="http://www.w3.org/2000/svg">
<g filter="url(#filter0_d_1550_3764)">
<path d="M32.5465 16.5652C24.8664 7.16611 14.6803 11.4194 11.3343 16.58C11.1184 16.913 11.1607 17.3513 11.412 17.6585C19.486 27.5263 28.9236 22.3573 32.5708 17.7215C32.8383 17.3815 32.8202 16.9002 32.5465 16.5652Z" fill="#F4F4F4"/>
<path d="M32.5465 16.5652C24.8664 7.16611 14.6803 11.4194 11.3343 16.58C11.1184 16.913 11.1607 17.3513 11.412 17.6585C19.486 27.5263 28.9236 22.3573 32.5708 17.7215C32.8383 17.3815 32.8202 16.9002 32.5465 16.5652Z" stroke="#07B9F1" stroke-width="2"/>
</g>
<circle cx="22" cy="17.1399" r="3" stroke="#07B9F1" stroke-width="2"/>
<rect x="12.7071" y="24.6777" width="24" height="3" rx="1.5" transform="rotate(-45 12.7071 24.6777)" fill="#07B9F1" stroke="#F4F4F4"/>
<defs>
<filter id="filter0_d_1550_3764" x="0.195312" y="0" width="43.5664" height="34.2881" filterUnits="userSpaceOnUse" color-interpolation-filters="sRGB">
<feFlood flood-opacity="0" result="BackgroundImageFix"/>
<feColorMatrix in="SourceAlpha" type="matrix" values="0 0 0 0 0 0 0 0 0 0 0 0 0 0 0 0 0 0 127 0" result="hardAlpha"/>
<feOffset/>
<feGaussianBlur stdDeviation="5"/>
<feComposite in2="hardAlpha" operator="out"/>
<feColorMatrix type="matrix" values="0 0 0 0 0.572549 0 0 0 0 0.835294 0 0 0 0 0.945098 0 0 0 1 0"/>
<feBlend mode="normal" in2="BackgroundImageFix" result="effect1_dropShadow_1550_3764"/>
<feBlend mode="normal" in="SourceGraphic" in2="effect1_dropShadow_1550_3764" result="shape"/>
</filter>
</defs>
</svg>
