<svg width="48" height="46" viewBox="0 0 47 45" fill="none" xmlns="http://www.w3.org/2000/svg">
<path d="M22.6336 1.14041C23.2131 0.421726 24.2981 0.392086 24.9159 1.07807L33.7972 10.9387C34.0652 11.2363 34.4007 11.4651 34.7755 11.6059L45.4772 15.6269C46.3786 15.9656 46.7319 17.0539 46.2013 17.8575L40.0447 27.1825C39.7749 27.5912 39.631 28.0702 39.631 28.56V42.2923C39.631 43.3015 38.6546 44.0227 37.69 43.7261L24.4523 39.6542C23.9733 39.5069 23.461 39.5069 22.9819 39.6544L9.75471 43.7255C8.79011 44.0224 7.81347 43.3011 7.81347 42.2918V28.524C7.81347 28.0624 7.68569 27.6099 7.44429 27.2165L1.711 17.8731C1.21376 17.0627 1.58621 16.0001 2.48056 15.6776L13.7116 11.6267C14.1423 11.4714 14.5221 11.2007 14.8095 10.8442L22.6336 1.14041Z" stroke="#BBBDC4"/>
</svg>
