<svg preserveAspectRatio="none"  viewBox="0 0 360 70" fill="none" xmlns="http://www.w3.org/2000/svg">
<g filter="url(#filter0_bddd_3520_2576)">
<path d="M9 47V45.8139C9 42.1935 13.0555 40.053 16.0445 42.0958L19.8746 44.7133C27.6168 50.0045 37.191 51.887 46.3602 49.9211C58.9827 47.2148 68 36.0592 68 23.1498V20.3943C68 11.8923 74.8923 5 83.3943 5H341C346.523 5 351 9.47715 351 15V47C351 52.5228 346.523 57 341 57H19C13.4772 57 9 52.5228 9 47Z" fill="url(#paint0_linear_3520_2576)"/>
<path d="M9 47V45.8139C9 42.1935 13.0555 40.053 16.0445 42.0958L19.8746 44.7133C27.6168 50.0045 37.191 51.887 46.3602 49.9211C58.9827 47.2148 68 36.0592 68 23.1498V20.3943C68 11.8923 74.8923 5 83.3943 5H341C346.523 5 351 9.47715 351 15V47C351 52.5228 346.523 57 341 57H19C13.4772 57 9 52.5228 9 47Z" stroke="#92D5F1"/>
</g>
<defs>
<filter id="filter0_bddd_3520_2576" x="0.5" y="-1.5" width="359" height="71" filterUnits="userSpaceOnUse" color-interpolation-filters="sRGB">
<feFlood flood-opacity="0" result="BackgroundImageFix"/>
<feGaussianBlur in="BackgroundImage" stdDeviation="3"/>
<feComposite in2="SourceAlpha" operator="in" result="effect1_backgroundBlur_3520_2576"/>
<feColorMatrix in="SourceAlpha" type="matrix" values="0 0 0 0 0 0 0 0 0 0 0 0 0 0 0 0 0 0 127 0" result="hardAlpha"/>
<feOffset/>
<feGaussianBlur stdDeviation="0.5"/>
<feColorMatrix type="matrix" values="0 0 0 0 0.572549 0 0 0 0 0.835294 0 0 0 0 0.945098 0 0 0 0.04 0"/>
<feBlend mode="normal" in2="effect1_backgroundBlur_3520_2576" result="effect2_dropShadow_3520_2576"/>
<feColorMatrix in="SourceAlpha" type="matrix" values="0 0 0 0 0 0 0 0 0 0 0 0 0 0 0 0 0 0 127 0" result="hardAlpha"/>
<feOffset/>
<feGaussianBlur stdDeviation="1"/>
<feColorMatrix type="matrix" values="0 0 0 0 0.572549 0 0 0 0 0.835294 0 0 0 0 0.945098 0 0 0 0.06 0"/>
<feBlend mode="normal" in2="effect2_dropShadow_3520_2576" result="effect3_dropShadow_3520_2576"/>
<feColorMatrix in="SourceAlpha" type="matrix" values="0 0 0 0 0 0 0 0 0 0 0 0 0 0 0 0 0 0 127 0" result="hardAlpha"/>
<feOffset dy="4"/>
<feGaussianBlur stdDeviation="4"/>
<feColorMatrix type="matrix" values="0 0 0 0 0.572549 0 0 0 0 0.835294 0 0 0 0 0.945098 0 0 0 0.04 0"/>
<feBlend mode="normal" in2="effect3_dropShadow_3520_2576" result="effect4_dropShadow_3520_2576"/>
<feBlend mode="normal" in="SourceGraphic" in2="effect4_dropShadow_3520_2576" result="shape"/>
</filter>
<linearGradient id="paint0_linear_3520_2576" x1="351" y1="-83.4996" x2="252.492" y2="156.658" gradientUnits="userSpaceOnUse">
<stop stop-color="#92D5F1" stop-opacity="0.01"/>
<stop offset="1" stop-color="#92D5F1" stop-opacity="0.1"/>
</linearGradient>
</defs>
</svg>
