<svg width="50" height="51" viewBox="0 0 50 51" fill="none" xmlns="http://www.w3.org/2000/svg">
<g filter="url(#filter0_d_5359_7529)">
<path d="M31.5183 26.9612C26.7748 29.915 23.104 33.2364 19.869 36.5884C19.5547 36.9141 19.0098 36.6914 19.0362 36.2395C19.2959 31.7965 20.9161 28.8564 22.6798 26.7736C23.0218 26.3697 23.0215 25.7728 22.6941 25.357C20.9318 23.1187 19.3095 19.3965 19.0394 14.8336C19.0121 14.3723 19.5736 14.1569 19.8781 14.5044C23.9531 19.1533 26.8542 22.2379 31.52 25.1781C32.1704 25.588 32.1709 26.5548 31.5183 26.9612Z" fill="#92D5F1"/>
</g>
<rect x="0.5" y="1" width="49" height="49" rx="24.5" stroke="url(#paint0_linear_5359_7529)"/>
<defs>
<filter id="filter0_d_5359_7529" x="9.03528" y="4.3327" width="32.9725" height="42.4105" filterUnits="userSpaceOnUse" color-interpolation-filters="sRGB">
<feFlood flood-opacity="0" result="BackgroundImageFix"/>
<feColorMatrix in="SourceAlpha" type="matrix" values="0 0 0 0 0 0 0 0 0 0 0 0 0 0 0 0 0 0 127 0" result="hardAlpha"/>
<feOffset/>
<feGaussianBlur stdDeviation="5"/>
<feComposite in2="hardAlpha" operator="out"/>
<feColorMatrix type="matrix" values="0 0 0 0 0.572549 0 0 0 0 0.835294 0 0 0 0 0.945098 0 0 0 1 0"/>
<feBlend mode="normal" in2="BackgroundImageFix" result="effect1_dropShadow_5359_7529"/>
<feBlend mode="normal" in="SourceGraphic" in2="effect1_dropShadow_5359_7529" result="shape"/>
</filter>
<linearGradient id="paint0_linear_5359_7529" x1="40.5" y1="47.5" x2="4.5" y2="6.5" gradientUnits="userSpaceOnUse">
<stop stop-color="#92D5F1"/>
<stop offset="1" stop-color="#92D5F1" stop-opacity="0"/>
</linearGradient>
</defs>
</svg>
