<?xml version="1.0" encoding="UTF-8" standalone="no" ?>
<!DOCTYPE svg PUBLIC "-//W3C//DTD SVG 1.1//EN" "http://www.w3.org/Graphics/SVG/1.1/DTD/svg11.dtd">
<svg xmlns="http://www.w3.org/2000/svg" xmlns:xlink="http://www.w3.org/1999/xlink" version="1.1" width="1080" height="1080" viewBox="0 0 1080 1080" xml:space="preserve">
<desc>Created with Fabric.js 5.2.4</desc>
<defs>
</defs>
<g transform="matrix(1 0 0 1 540 540)" id="9c980874-7f01-4997-a32c-f0486a06a8e8"  >
<rect style="stroke: none; stroke-width: 1; stroke-dasharray: none; stroke-linecap: butt; stroke-dashoffset: 0; stroke-linejoin: miter; stroke-miterlimit: 4; fill: rgb(255,255,255); fill-rule: nonzero; opacity: 1; visibility: hidden;" vector-effect="non-scaling-stroke"  x="-540" y="-540" rx="0" ry="0" width="1080" height="1080" />
</g>
<g transform="matrix(1 0 0 1 540 540)" id="89d45fe0-0913-41a6-a8da-158e16a768dd"  >
</g>
<g transform="matrix(2.11 0 0 2.11 540 540)"  >
<g style=""   >
		<g transform="matrix(1 0 0 1 0 0)" id="Layer_1"  >
<path style="stroke: none; stroke-width: 1; stroke-dasharray: none; stroke-linecap: butt; stroke-dashoffset: 0; stroke-linejoin: miter; stroke-miterlimit: 4; fill: rgb(255,255,255); fill-rule: nonzero; opacity: 1;" vector-effect="non-scaling-stroke"  transform=" translate(-256, -256)" d="M 416 145.043 L 281.533 10.577 C 274.712 3.756 265.644 0 256 0 C 246.356 0 237.288 3.756 230.466 10.577 L 95.999 145.043 C 89.17999999999999 151.864 85.423 160.931 85.423 170.577 C 85.423 190.488 101.62100000000001 206.686 121.53200000000001 206.686 L 210.811 206.686 L 210.811 466.812 C 210.811 491.729 231.082 512 256 512 C 280.918 512 301.189 491.729 301.189 466.81 L 301.189 206.686 L 390.468 206.686 C 410.379 206.686 426.577 190.488 426.577 170.577 C 426.577 160.932 422.821 151.864 416 145.043 z M 390.467 186.287 L 290.989 186.287 C 285.35699999999997 186.287 280.78999999999996 190.853 280.78999999999996 196.48600000000002 L 280.78999999999996 466.81100000000004 C 280.78999999999996 480.48 269.669 491.60100000000006 255.99999999999997 491.60100000000006 C 242.33099999999996 491.60100000000006 231.20999999999998 480.4800000000001 231.20899999999997 466.81000000000006 L 231.20899999999997 196.487 C 231.20899999999997 190.85399999999998 226.64199999999997 186.28799999999998 221.00999999999996 186.28799999999998 L 121.53199999999997 186.28799999999998 C 112.86899999999997 186.28799999999998 105.82099999999997 179.23999999999998 105.82099999999997 170.57699999999997 C 105.82099999999997 166.37999999999997 107.45599999999997 162.43399999999997 110.42299999999997 159.46699999999998 L 244.889 25 C 247.858 22.033 251.804 20.398 256 20.398 C 260.196 20.398 264.142 22.033 267.109 25 L 401.575 159.466 C 404.543 162.434 406.178 166.38 406.178 170.57600000000002 C 406.178 179.24 399.13 186.287 390.467 186.287 z" stroke-linecap="round" />
</g>
		<g transform="matrix(1 0 0 1 85.56 -132.48)" id="Layer_1"  >
<path style="stroke: none; stroke-width: 1; stroke-dasharray: none; stroke-linecap: butt; stroke-dashoffset: 0; stroke-linejoin: miter; stroke-miterlimit: 4; fill: rgb(255,255,255); fill-rule: nonzero; opacity: 1;" vector-effect="non-scaling-stroke"  transform=" translate(-341.56, -123.52)" d="M 349.906 117.444 L 347.64 115.178 C 343.655 111.195 337.199 111.195 333.215 115.178 C 329.23199999999997 119.16199999999999 329.23199999999997 125.62 333.215 129.603 L 335.481 131.869 C 337.473 133.861 340.082 134.856 342.693 134.856 C 345.304 134.856 347.913 133.861 349.906 131.869 C 353.889 127.885 353.889 121.427 349.906 117.444 z" stroke-linecap="round" />
</g>
		<g transform="matrix(1 0 0 1 31.48 -186.39)" id="Layer_1"  >
<path style="stroke: none; stroke-width: 1; stroke-dasharray: none; stroke-linecap: butt; stroke-dashoffset: 0; stroke-linejoin: miter; stroke-miterlimit: 4; fill: rgb(255,255,255); fill-rule: nonzero; opacity: 1;" vector-effect="non-scaling-stroke"  transform=" translate(-287.48, -69.61)" d="M 324.526 92.231 L 264.86 32.565 C 260.87600000000003 28.581999999999997 254.42000000000002 28.583 250.435 32.565 C 246.452 36.547999999999995 246.452 43.006 250.435 46.989 L 310.101 106.655 C 312.093 108.647 314.702 109.642 317.313 109.642 C 319.923 109.642 322.533 108.64699999999999 324.526 106.65599999999999 C 328.509 102.672 328.509 96.215 324.526 92.231 z" stroke-linecap="round" />
</g>
</g>
</g>
</svg>
