<svg width="20" height="24" viewBox="0 0 20 24" fill="none" xmlns="http://www.w3.org/2000/svg">
<path d="M1.98492 11.5L8.46839 3.82505L8.60725 3.66926C9.39084 2.79011 10.7606 2.77495 11.5635 3.63655L11.708 3.7916L18.3327 11.6534C18.3327 11.6534 18.5855 12 18.5781 12.5H11.9926C9.49259 12.5 9.49258 12.5 7.99258 12.5H1.50055H1.49877C1.71068 12.5 1.49499 12.5 1.98492 11.5Z" fill="#FFB44F"/>
<path d="M6.46094 12.5L10.3672 0L14.2734 12.5H6.46094Z" fill="url(#paint0_linear_2329_2623)"/>
<path d="M8.41531 3.78869L2.06886 11.3612C1.44599 12.1044 1.44599 13.1873 2.06886 13.9305L8.41531 21.503C9.20324 22.4431 10.644 22.4589 11.4524 21.5363L18.0873 13.9639C18.7483 13.2095 18.7483 12.0822 18.0873 11.3278L11.4524 3.75534C10.644 2.83273 9.20324 2.84855 8.41531 3.78869Z" fill="#FFB44F" fill-opacity="0.2"/>
<defs>
<linearGradient id="paint0_linear_2329_2623" x1="10.3672" y1="2.34375" x2="10.3672" y2="12.5" gradientUnits="userSpaceOnUse">
<stop stop-color="#FFEF77" stop-opacity="0"/>
<stop offset="1" stop-color="#FFEF77"/>
</linearGradient>
</defs>
</svg>
