<svg width="175" height="131" viewBox="0 0 175 131" fill="none" xmlns="http://www.w3.org/2000/svg">
<circle cx="88.4281" cy="65.5629" r="57.8461" fill="url(#paint0_linear_1550_9529)"/>
<g filter="url(#filter0_i_1550_9529)">
<path d="M64.7496 38.154C66.8928 33.0097 71.1796 32.5811 74.6092 32.5811C82.7542 32.5811 74.6091 44.1557 68.6075 48.0139C63.4634 51.3208 63.4241 41.3355 64.7496 38.154Z" fill="url(#paint1_linear_1550_9529)" fill-opacity="0.5"/>
</g>
<g filter="url(#filter1_i_1550_9529)">
<path d="M102.064 26.8008C105.799 21.5505 123.927 28.087 126.499 33.2312C129.715 39.6616 112.907 41.805 106.351 39.2329C100.658 36.9994 99.7606 30.0389 102.064 26.8008Z" fill="url(#paint2_linear_1550_9529)" fill-opacity="0.5"/>
</g>
<g filter="url(#filter2_i_1550_9529)">
<path d="M98.3584 46.6641C97.9297 50.951 100.502 56.0952 106.075 53.0944C113.372 49.1649 98.9586 40.6623 98.3584 46.6641Z" fill="url(#paint3_linear_1550_9529)" fill-opacity="0.5"/>
</g>
<g filter="url(#filter3_i_1550_9529)">
<path d="M42.5624 75.4353C39.6143 76.2712 39.9599 81.3255 45.4868 84.4096C48.6629 86.1819 47.4505 74.0492 42.5624 75.4353Z" fill="url(#paint4_linear_1550_9529)" fill-opacity="0.5"/>
</g>
<g filter="url(#filter4_i_1550_9529)">
<path d="M97.6414 99.4854C92.0686 100.072 86.0665 110.631 88.6389 113.203C92.6128 117.177 105.786 98.628 97.6414 99.4854Z" fill="url(#paint5_linear_1550_9529)" fill-opacity="0.5"/>
</g>
<path d="M79.9879 113.945C79.5144 113.982 79.117 113.982 78.8086 113.959C79.1613 113.942 79.559 113.936 79.9879 113.945C82.3664 113.762 86.6644 112.675 91.2406 109.243C98.0996 104.099 103.244 118.674 115.247 113.53C127.251 108.386 131.537 96.3823 137.968 100.669C144.398 104.956 142.683 129.391 117.391 126.819C116.105 128.105 112.675 129.906 109.246 126.819C104.816 131.392 94.5844 136.079 89.0972 118.245C88.1892 114.916 83.2084 114.013 79.9879 113.945Z" fill="white"/>
<path d="M143.968 31.6494C143.11 27.4354 134.324 26.578 132.609 28.2927C138.611 36.4378 143.11 48.9399 143.11 52.6553C135.565 53.6841 132.536 59.0856 131.964 61.6578C119.961 60.3717 115.674 68.0881 109.673 65.0873C89.0955 54.4558 83.9512 61.2291 83.9512 65.9447C85.6659 63.8012 89.9528 59.943 94.6684 65.9447C103.585 78.6339 108.387 75.2329 109.673 71.9463C118.589 85.3214 125.677 78.9483 128.106 74.0898C153.485 84.7213 158.4 72.5179 157.686 65.0873C168.66 59.2571 163.973 53.5126 160.258 51.3692C163.688 40.0518 155.685 36.9366 151.256 36.7937C150.913 31.3065 146.254 31.0778 143.968 31.6494Z" fill="white"/>
<path d="M62.9443 12.3592C54.3703 12.3592 58.6574 22.6477 63.8017 18.3609C68.9459 25.22 75.0906 23.2193 77.5199 21.3617C87.4655 28.5636 95.0962 24.3625 97.6683 21.3617C101.098 23.7623 103.956 22.3619 104.956 21.3617C110.1 25.1341 114.816 22.9335 116.531 21.3617C119.532 25.6486 123.581 25.2199 125.962 23.0764C130.249 19.2182 125.247 15.7887 122.104 15.36C118.674 5.07144 108.1 5.35726 103.241 6.78625C102.212 4.38562 97.6683 3.78537 96.8109 5.07153C85.8365 -4.87407 76.2338 2.07067 72.8043 6.78625C65.2594 4.38558 63.0873 9.50128 62.9443 12.3592Z" fill="white"/>
<path d="M44.0833 80.521C33.795 63.8021 20.9343 72.8046 20.0766 79.6636C4.30084 86.5226 16.6471 100.526 24.7922 106.671C22.6488 116.531 31.6513 120.389 38.939 119.532C46.2267 118.674 45.3693 121.675 51.7997 122.533C68.9475 124.819 60.3737 107.261 72.3771 105.385C85.1188 103.394 75.3779 84.8079 89.5247 83.9506C100.842 83.2647 103.957 79.6636 104.529 77.5201C103.157 80.2638 94.5258 80.6639 90.3818 80.521C82.4939 73.3189 76.5208 78.3775 74.5203 81.807C69.033 79.4064 65.6607 82.8073 64.6604 84.8079C59.5161 75.2052 48.7989 77.9488 44.0833 80.521Z" fill="white"/>
<path d="M143.111 3.35695C140.068 3.03664 137.73 5.64184 136.574 7.8347C136.369 8.22374 136.491 8.70894 136.833 8.98583C148.35 18.3172 151.123 4.20035 143.111 3.35695Z" fill="white"/>
<path d="M2.07087 90.8097C-0.787064 92.0957 -3.93075 95.5252 -0.50125 98.0973C4.26321 101.671 8.50123 88.2375 2.07087 90.8097Z" fill="white"/>
<path d="M147.919 20.2659C146.871 22.7692 146.909 26.7977 150.6 26.3978C155.727 25.8423 150.468 14.8369 147.919 20.2659Z" fill="white"/>
<path d="M8.07255 101.527C4.64309 102.143 -0.930219 111.56 7.21518 115.245C25.4365 123.489 25.2203 98.4491 8.07255 101.527Z" fill="white"/>
<path d="M172.691 68.9467C168.833 65.0886 161.202 69.8041 160.259 74.5197C158.973 80.95 155.972 78.8066 151.685 81.8074C147.399 84.8082 147.827 90.3812 154.686 91.6673C162.736 93.1766 160.688 84.3795 164.117 83.5221C174.835 80.8429 177.407 73.6623 172.691 68.9467Z" fill="white"/>
<defs>
<filter id="filter0_i_1550_9529" x="60.0176" y="32.5811" width="18.0215" height="20.0952" filterUnits="userSpaceOnUse" color-interpolation-filters="sRGB">
<feFlood flood-opacity="0" result="BackgroundImageFix"/>
<feBlend mode="normal" in="SourceGraphic" in2="BackgroundImageFix" result="shape"/>
<feColorMatrix in="SourceAlpha" type="matrix" values="0 0 0 0 0 0 0 0 0 0 0 0 0 0 0 0 0 0 127 0" result="hardAlpha"/>
<feOffset dx="-4" dy="4"/>
<feGaussianBlur stdDeviation="2"/>
<feComposite in2="hardAlpha" operator="arithmetic" k2="-1" k3="1"/>
<feColorMatrix type="matrix" values="0 0 0 0 0.176471 0 0 0 0 0.172549 0 0 0 0 0.176471 0 0 0 0.25 0"/>
<feBlend mode="normal" in2="shape" result="effect1_innerShadow_1550_9529"/>
</filter>
<filter id="filter1_i_1550_9529" x="96.8867" y="24.8643" width="30.0176" height="19.4297" filterUnits="userSpaceOnUse" color-interpolation-filters="sRGB">
<feFlood flood-opacity="0" result="BackgroundImageFix"/>
<feBlend mode="normal" in="SourceGraphic" in2="BackgroundImageFix" result="shape"/>
<feColorMatrix in="SourceAlpha" type="matrix" values="0 0 0 0 0 0 0 0 0 0 0 0 0 0 0 0 0 0 127 0" result="hardAlpha"/>
<feOffset dx="-4" dy="4"/>
<feGaussianBlur stdDeviation="2"/>
<feComposite in2="hardAlpha" operator="arithmetic" k2="-1" k3="1"/>
<feColorMatrix type="matrix" values="0 0 0 0 0.176471 0 0 0 0 0.172549 0 0 0 0 0.176471 0 0 0 0.25 0"/>
<feBlend mode="normal" in2="shape" result="effect1_innerShadow_1550_9529"/>
</filter>
<filter id="filter2_i_1550_9529" x="94.3125" y="44.584" width="13.8203" height="13.4067" filterUnits="userSpaceOnUse" color-interpolation-filters="sRGB">
<feFlood flood-opacity="0" result="BackgroundImageFix"/>
<feBlend mode="normal" in="SourceGraphic" in2="BackgroundImageFix" result="shape"/>
<feColorMatrix in="SourceAlpha" type="matrix" values="0 0 0 0 0 0 0 0 0 0 0 0 0 0 0 0 0 0 127 0" result="hardAlpha"/>
<feOffset dx="-4" dy="4"/>
<feGaussianBlur stdDeviation="2"/>
<feComposite in2="hardAlpha" operator="arithmetic" k2="-1" k3="1"/>
<feColorMatrix type="matrix" values="0 0 0 0 0.176471 0 0 0 0 0.172549 0 0 0 0 0.176471 0 0 0 0.25 0"/>
<feBlend mode="normal" in2="shape" result="effect1_innerShadow_1550_9529"/>
</filter>
<filter id="filter3_i_1550_9529" x="36.7266" y="75.3247" width="10.5195" height="13.2622" filterUnits="userSpaceOnUse" color-interpolation-filters="sRGB">
<feFlood flood-opacity="0" result="BackgroundImageFix"/>
<feBlend mode="normal" in="SourceGraphic" in2="BackgroundImageFix" result="shape"/>
<feColorMatrix in="SourceAlpha" type="matrix" values="0 0 0 0 0 0 0 0 0 0 0 0 0 0 0 0 0 0 127 0" result="hardAlpha"/>
<feOffset dx="-4" dy="4"/>
<feGaussianBlur stdDeviation="2"/>
<feComposite in2="hardAlpha" operator="arithmetic" k2="-1" k3="1"/>
<feColorMatrix type="matrix" values="0 0 0 0 0.176471 0 0 0 0 0.172549 0 0 0 0 0.176471 0 0 0 0.25 0"/>
<feBlend mode="normal" in2="shape" result="effect1_innerShadow_1550_9529"/>
</filter>
<filter id="filter4_i_1550_9529" x="84.0254" y="99.4565" width="16.2246" height="18.3057" filterUnits="userSpaceOnUse" color-interpolation-filters="sRGB">
<feFlood flood-opacity="0" result="BackgroundImageFix"/>
<feBlend mode="normal" in="SourceGraphic" in2="BackgroundImageFix" result="shape"/>
<feColorMatrix in="SourceAlpha" type="matrix" values="0 0 0 0 0 0 0 0 0 0 0 0 0 0 0 0 0 0 127 0" result="hardAlpha"/>
<feOffset dx="-4" dy="4"/>
<feGaussianBlur stdDeviation="2"/>
<feComposite in2="hardAlpha" operator="arithmetic" k2="-1" k3="1"/>
<feColorMatrix type="matrix" values="0 0 0 0 0.176471 0 0 0 0 0.172549 0 0 0 0 0.176471 0 0 0 0.25 0"/>
<feBlend mode="normal" in2="shape" result="effect1_innerShadow_1550_9529"/>
</filter>
<linearGradient id="paint0_linear_1550_9529" x1="146.328" y1="123.463" x2="30.582" y2="7.7168" gradientUnits="userSpaceOnUse">
<stop stop-color="#F34510"/>
<stop offset="1" stop-color="#FFEF77"/>
</linearGradient>
<linearGradient id="paint1_linear_1550_9529" x1="77.7357" y1="32.5811" x2="64.0176" y2="48.8713" gradientUnits="userSpaceOnUse">
<stop stop-color="#FFB44F"/>
<stop offset="1" stop-color="#F34510"/>
</linearGradient>
<linearGradient id="paint2_linear_1550_9529" x1="117.925" y1="23.8002" x2="104.207" y2="40.0904" gradientUnits="userSpaceOnUse">
<stop stop-color="#FFB44F"/>
<stop offset="1" stop-color="#F34510"/>
</linearGradient>
<linearGradient id="paint3_linear_1550_9529" x1="107.919" y1="44.584" x2="100.264" y2="55.4764" gradientUnits="userSpaceOnUse">
<stop stop-color="#FFB44F"/>
<stop offset="1" stop-color="#F34510"/>
</linearGradient>
<linearGradient id="paint4_linear_1550_9529" x1="48.1489" y1="83.8098" x2="39.1031" y2="82.6288" gradientUnits="userSpaceOnUse">
<stop stop-color="#FFB44F"/>
<stop offset="1" stop-color="#F34510"/>
</linearGradient>
<linearGradient id="paint5_linear_1550_9529" x1="99.985" y1="99.4565" x2="87.7544" y2="113.703" gradientUnits="userSpaceOnUse">
<stop stop-color="#FFB44F"/>
<stop offset="1" stop-color="#F34510"/>
</linearGradient>
</defs>
</svg>
